<?xml version="1.0" standalone="no"?>
<!DOCTYPE svg PUBLIC "-//W3C//DTD SVG 20010904//EN"
 "http://www.w3.org/TR/2001/REC-SVG-20010904/DTD/svg10.dtd">
<svg version="1.0" xmlns="http://www.w3.org/2000/svg"
 width="160.000000pt" height="160.000000pt" viewBox="0 0 160.000000 160.000000"
 preserveAspectRatio="xMidYMid meet">
<g transform="translate(0.000000,160.000000) scale(0.100000,-0.100000)"
fill="#000000" stroke="none">
<path d="M1035 1284 c-43 -24 -54 -34 -37 -34 12 0 22 -2 22 -5 0 -3 -34 -46
-77 -95 l-76 -89 -28 20 -27 19 -67 -80 c-66 -79 -68 -80 -91 -65 -13 8 -25
15 -27 15 -11 0 -98 -112 -92 -118 4 -4 15 3 25 15 71 88 67 85 96 67 l26 -18
37 45 c20 24 50 59 67 78 31 34 32 35 57 18 15 -9 28 -17 30 -17 2 0 38 43 81
95 43 52 80 95 83 95 2 0 7 -9 11 -20 6 -17 12 -8 29 45 12 36 20 64 20 64 -1
-1 -29 -16 -62 -35z m17 -21 c-6 -2 -9 -10 -6 -15 4 -7 2 -8 -5 -4 -13 9 -5
26 12 25 9 0 8 -2 -1 -6z"/>
<path d="M726 1112 c-3 -5 1 -9 9 -9 8 0 12 4 9 9 -3 4 -7 8 -9 8 -2 0 -6 -4
-9 -8z"/>
<path d="M990 879 c0 -157 3 -238 10 -234 6 4 10 92 10 231 0 217 1 224 20
225 11 1 28 2 38 3 21 1 19 20 21 -244 1 -139 5 -220 11 -220 6 0 10 87 10
240 l0 240 -60 0 -60 0 0 -241z"/>
<path d="M1064 940 c0 -58 1 -81 3 -52 2 28 2 76 0 105 -2 28 -3 5 -3 -53z"/>
<path d="M810 816 c0 -99 4 -167 10 -171 7 -4 10 52 10 159 0 91 3 166 8 166
4 0 7 -28 6 -62 l-1 -63 4 58 c2 31 7 58 11 58 4 1 18 2 32 3 l25 2 -3 -155
c-2 -98 1 -158 7 -164 8 -8 11 41 11 161 l0 172 -60 0 -60 0 0 -164z"/>
<path d="M640 753 c0 -80 3 -113 10 -103 5 8 10 54 10 103 0 62 4 87 13 89 54
6 54 6 56 -98 1 -47 4 -91 7 -99 5 -13 -8 -15 -80 -15 -51 0 -86 -4 -86 -10 0
-6 107 -10 301 -10 197 0 298 3 294 10 -4 6 -85 10 -211 10 l-204 0 0 120 0
120 -55 0 -55 0 0 -117z"/>
<path d="M505 831 c-3 -5 -2 -12 3 -15 5 -3 9 1 9 9 0 17 -3 19 -12 6z"/>
<path d="M196 528 c-21 -30 -20 -54 4 -78 31 -31 100 -22 100 13 0 5 -7 1 -16
-7 -39 -39 -106 1 -88 52 11 31 55 42 81 20 14 -11 15 -11 11 2 -3 9 -19 16
-40 18 -28 2 -40 -2 -52 -20z"/>
<path d="M332 538 c-35 -43 -6 -108 47 -108 54 0 82 68 43 103 -22 20 -75 22
-90 5z m88 -19 c26 -47 -25 -100 -69 -72 -20 13 -26 60 -10 79 18 22 66 18 79
-7z"/>
<path d="M356 501 c-4 -5 -2 -12 3 -15 5 -4 12 -2 15 3 4 5 2 12 -3 15 -5 4
-12 2 -15 -3z"/>
<path d="M470 516 c0 -19 -4 -46 -10 -60 -7 -21 -6 -26 5 -26 8 0 14 3 14 8
-1 4 0 23 1 42 l2 35 20 -45 21 -44 14 37 c19 47 33 47 33 2 0 -19 3 -35 8
-35 4 0 6 18 4 40 -2 22 -8 40 -12 40 -5 0 -6 10 -3 23 2 12 -6 0 -20 -28
l-25 -50 -21 48 c-12 26 -24 47 -26 47 -3 0 -5 -15 -5 -34z"/>
<path d="M619 503 c2 -27 8 -54 13 -60 13 -16 50 -17 66 -1 13 13 17 108 5
108 -5 0 -8 -24 -8 -52 0 -52 0 -53 -30 -53 -29 0 -30 2 -33 53 -2 28 -6 52
-10 52 -4 0 -6 -21 -3 -47z"/>
<path d="M749 499 c2 -36 -1 -54 -10 -60 -11 -7 -9 -9 6 -9 18 0 20 5 17 48
l-4 47 45 -50 44 -49 2 62 c1 34 -3 62 -8 62 -5 0 -7 -21 -5 -47 l4 -48 -45
48 c-26 26 -47 47 -48 47 -1 0 0 -23 2 -51z"/>
<path d="M885 490 c0 -33 4 -60 10 -60 6 0 9 24 7 60 -5 78 -17 78 -17 0z"/>
<path d="M916 541 c-4 -5 3 -7 15 -4 20 6 21 3 18 -51 l-4 -56 33 0 c19 0 40
8 52 20 45 45 9 100 -64 100 -25 0 -47 -4 -50 -9z m100 -9 c37 -25 14 -92 -31
-92 -23 0 -25 3 -25 50 0 45 2 50 23 50 12 0 27 -4 33 -8z"/>
<path d="M1110 542 c0 -7 -11 -35 -24 -62 -19 -38 -21 -50 -10 -50 8 0 13 3
13 8 -4 23 4 32 26 32 22 0 30 -9 26 -32 0 -5 6 -8 13 -8 12 0 9 12 -10 58
-28 62 -34 72 -34 54z m20 -54 c0 -5 -7 -8 -15 -8 -17 0 -18 2 -9 25 5 13 8
14 15 3 5 -7 9 -16 9 -20z"/>
<path d="M1195 490 l0 -60 33 0 c35 0 72 29 72 58 0 35 -29 62 -68 62 l-37 0
0 -60z m79 34 c9 -8 16 -21 16 -27 0 -25 -32 -57 -56 -57 -22 0 -24 4 -24 50
0 46 2 50 24 50 14 0 32 -7 40 -16z"/>
<path d="M1324 524 c-35 -53 21 -113 80 -86 58 26 36 112 -29 112 -26 0 -39
-6 -51 -26z m96 -5 c26 -47 -25 -100 -69 -72 -20 13 -26 60 -10 79 18 22 66
18 79 -7z"/>
<path d="M1463 534 c-3 -8 4 -25 16 -38 36 -38 19 -79 -18 -43 -11 10 -13 9
-9 -3 6 -21 42 -24 58 -5 11 13 9 20 -13 43 -32 34 -35 57 -7 49 11 -3 20 -1
20 4 0 15 -40 10 -47 -7z"/>
<path d="M1105 421 c-3 -5 -2 -12 3 -15 5 -3 9 1 9 9 0 17 -3 19 -12 6z"/>
<path d="M316 412 c-3 -5 1 -9 9 -9 8 0 12 4 9 9 -3 4 -7 8 -9 8 -2 0 -6 -4
-9 -8z"/>
<path d="M485 410 c-3 -6 1 -7 9 -4 18 7 21 14 7 14 -6 0 -13 -4 -16 -10z"/>
<path d="M1290 409 c0 -5 5 -7 10 -4 6 3 10 8 10 11 0 2 -4 4 -10 4 -5 0 -10
-5 -10 -11z"/>
</g>
</svg>
